<svg width="298" height="298" viewBox="0 0 298 298" fill="none" xmlns="http://www.w3.org/2000/svg">
<rect width="298" height="298" rx="64" fill="black"/>
<mask id="mask0_2_10" style="mask-type:alpha" maskUnits="userSpaceOnUse" x="0" y="0" width="298" height="298">
<rect width="298" height="298" rx="64" fill="black"/>
</mask>
<g mask="url(#mask0_2_10)">
<circle cx="48" cy="266" r="196" stroke="#30323D" stroke-width="14"/>
<circle cx="48" cy="266" r="126" stroke="#30323D" stroke-width="14"/>
<circle cx="48" cy="266" r="92" stroke="#30323D" stroke-width="14"/>
<mask id="mask1_2_10" style="mask-type:alpha" maskUnits="userSpaceOnUse" x="-51" y="167" width="198" height="198">
<circle cx="48" cy="266" r="92" stroke="#30323D" stroke-width="14"/>
</mask>
<g mask="url(#mask1_2_10)">
<rect x="-3" y="127" width="252" height="142" fill="#38BDF8"/>
<circle cx="140" cy="269" r="7" fill="#38BDF8"/>
</g>
<mask id="mask2_2_10" style="mask-type:alpha" maskUnits="userSpaceOnUse" x="-85" y="133" width="266" height="266">
<circle cx="48" cy="266" r="126" stroke="#30323D" stroke-width="14"/>
</mask>
<g mask="url(#mask2_2_10)">
<rect x="-116" y="-43" width="274" height="243" rx="7" fill="#34D399"/>
<circle cx="152" cy="195" r="7" fill="#34D399"/>
</g>
<mask id="mask3_2_10" style="mask-type:alpha" maskUnits="userSpaceOnUse" x="-121" y="97" width="338" height="338">
<circle cx="48" cy="266" r="162" stroke="#30323D" stroke-width="14"/>
</mask>
<g mask="url(#mask3_2_10)">
<path d="M-48 84H224V305.5L-48 379V84Z" fill="#FCD34D"/>
</g>
<mask id="mask4_2_10" style="mask-type:alpha" maskUnits="userSpaceOnUse" x="-155" y="63" width="406" height="406">
<circle cx="48" cy="266" r="196" stroke="#30323D" stroke-width="14"/>
</mask>
<g mask="url(#mask4_2_10)">
<path d="M189 130L574 101V458H198L189 130Z" fill="#FB7185"/>
<circle cx="194" cy="135" r="7" fill="#FB7185"/>
</g>
</g>
</svg>
